<svg width="20" height="20" viewBox="0 0 20 20" fill="none" xmlns="http://www.w3.org/2000/svg">
<path d="M5.83398 7.5L10.0007 10.4167L14.1673 7.5" stroke="white" stroke-width="1.4" stroke-linecap="round" stroke-linejoin="round"/>
<path d="M1.66699 14.1666V5.83329C1.66699 5.39127 1.84259 4.96734 2.15515 4.65478C2.46771 4.34222 2.89163 4.16663 3.33366 4.16663H16.667C17.109 4.16663 17.5329 4.34222 17.8455 4.65478C18.1581 4.96734 18.3337 5.39127 18.3337 5.83329V14.1666C18.3337 14.6087 18.1581 15.0326 17.8455 15.3451C17.5329 15.6577 17.109 15.8333 16.667 15.8333H3.33366C2.89163 15.8333 2.46771 15.6577 2.15515 15.3451C1.84259 15.0326 1.66699 14.6087 1.66699 14.1666Z" stroke="white" stroke-width="1.4"/>
</svg>
