<svg width="24" height="24" viewBox="0 0 24 24" fill="none" xmlns="http://www.w3.org/2000/svg">
<path fill-rule="evenodd" clip-rule="evenodd" d="M2 11.5C2 11.2239 2.22386 11 2.5 11H7.65C8.16349 11 8.64042 11.2694 8.91059 11.6896L10.2406 13.7596C10.3304 13.8994 10.4935 13.99 10.66 13.99H13.36C13.5348 13.99 13.6904 13.9029 13.7752 13.7663L13.7775 13.7626L15.0875 11.6926L15.0894 11.6896C15.3596 11.2694 15.8365 11 16.35 11H21.5C21.7761 11 22 11.2239 22 11.5C22 11.7761 21.7761 12 21.5 12H16.35C16.184 12 16.0214 12.0901 15.9314 12.2292C15.9311 12.2296 15.9308 12.23 15.9306 12.2304L14.6235 14.2957C14.3481 14.7379 13.8644 14.99 13.36 14.99H10.66C10.1465 14.99 9.66958 14.7206 9.39941 14.3004L8.06941 12.2304C7.97958 12.0906 7.81651 12 7.65 12H2.5C2.22386 12 2 11.7761 2 11.5Z" fill="#FF6D17"/>
<path fill-rule="evenodd" clip-rule="evenodd" d="M4.79421 3.97822C5.02154 3.39568 5.55398 2.98999 6.19 2.98999H17.81C18.4444 2.98999 18.9907 3.40466 19.2081 3.98433C19.2081 3.9843 19.2081 3.98436 19.2081 3.98433L21.9678 11.3036C21.9891 11.36 22 11.4197 22 11.48V18.24C22 19.673 21.0025 20.99 19.6 20.99H4.4C2.99752 20.99 2 19.673 2 18.24V11.48C2 11.4197 2.01089 11.36 2.03215 11.3036L4.79421 3.97822ZM5.7267 4.33944L3 11.5711V18.24C3 19.2869 3.70249 19.99 4.4 19.99H19.6C20.2975 19.99 21 19.2869 21 18.24V11.5711L18.2722 4.33639C18.1895 4.11611 17.9956 3.98999 17.81 3.98999H6.19C6.00662 3.98999 5.81968 4.10356 5.7267 4.33944Z" fill="#FF6D17"/>
</svg>
