<svg width="51" height="31" viewBox="0 0 51 31" fill="none" xmlns="http://www.w3.org/2000/svg">
<path d="M35.0766 21.3539C34.9777 21.0904 26.2085 3.76879 26.0766 3.50535C25.6151 2.3857 24.7909 1.4307 23.703 0.772085C20.9667 -0.808595 17.4722 0.113468 15.8898 2.84673C14.8019 4.72379 14.8678 6.93015 15.9227 8.67549C16.0216 8.906 24.3953 25.5031 24.5601 25.7666C24.659 26.03 24.7909 26.2606 24.9227 26.524C25.3843 27.6437 26.2085 28.5986 27.2964 29.2573C30.0326 30.8379 33.5271 29.9488 35.1096 27.2156C36.2304 25.3385 36.1315 23.0992 35.0766 21.3539Z" fill="white" fill-opacity="0.4"/>
<path d="M24.956 9.63049C25.9121 8.60963 26.5055 7.22653 26.5055 5.71171C26.5055 2.58328 23.967 0.014679 20.8022 0.014679C18.8571 0.014679 17.1429 0.969674 16.1209 2.45156C15.9231 2.64915 1.71429 20.1684 1.54945 20.3989C0.593406 21.4197 0 22.8028 0 24.3176C0 27.479 2.57143 30.0147 5.7033 30.0147C7.64835 30.0147 9.36264 29.0597 10.3846 27.5778C10.5824 27.3473 24.8242 9.861 24.956 9.63049Z" fill="white"/>
<path d="M49.4502 9.63046C50.4062 8.6096 50.9996 7.2265 50.9996 5.71168C50.9996 2.55032 48.4282 0.0146484 45.2963 0.0146484C43.3513 0.0146484 41.637 0.969643 40.615 2.45153C40.4172 2.64912 26.1755 20.1683 26.0106 20.3988C25.0546 21.4197 24.4612 22.8028 24.4612 24.3176C24.4612 27.479 27.0326 30.0146 30.1645 30.0146C32.1095 30.0146 33.8238 29.0597 34.8458 27.5778C35.0766 27.3472 49.2854 9.86097 49.4502 9.63046Z" fill="white"/>
</svg>
